<svg version="1.0" xmlns="http://www.w3.org/2000/svg"
 width="1024" height="1024" viewBox="0 0 1024 350" preserveAspectRatio="xMidYMid meet">

  <!-- Background rectangle matching topbar -->
  <rect width="1024" height="1024" fill="#FFFFFF" />

  <!-- Logo / text paths in white -->
  <g transform="translate(0,1024) scale(0.1,-0.1)" fill="#1e1e1e" stroke="none">
    <path d="M0 5120 l0 -5120 5120 0 5120 0 0 5120 0 5120 -5120 0 -5120 0 0
-5120z m5409 1317 c68 -45 95 -90 99 -167 3 -53 0 -75 -17 -107 -105 -207
-431 -137 -431 92 0 68 25 121 77 164 50 41 84 51 165 47 53 -3 77 -9 107 -29z
m-609 -1174 l0 -1188 157 158 157 158 101 -101 100 -100 -341 -340 c-187 -187
-346 -340 -353 -340 -7 0 -164 151 -349 335 l-337 334 100 101 100 100 165
-165 c90 -91 164 -165 164 -165 1 0 2 184 3 410 l2 410 -59 -64 c-63 -67 -139
-114 -229 -140 -71 -21 -237 -21 -316 -1 -170 45 -320 193 -382 380 -25 73
-27 93 -27 240 0 153 1 164 30 245 70 197 202 320 400 370 177 46 342 6 480
-114 l49 -43 -3 340 c-2 187 -1 346 2 353 4 11 45 14 196 14 l190 0 0 -1187z
m-2655 468 l170 -498 169 498 169 499 192 0 193 0 6 -27 c17 -83 215 -1516
211 -1523 -3 -4 -89 -7 -192 -7 l-187 2 -53 430 c-29 237 -52 447 -53 468 0
20 -3 37 -7 37 -5 0 -17 -28 -28 -63 -11 -34 -74 -207 -140 -384 l-119 -323
-157 0 c-140 0 -158 2 -164 18 -3 9 -65 175 -136 367 -71 193 -133 358 -137
368 -4 11 -26 -147 -51 -370 -23 -213 -47 -425 -53 -470 l-11 -83 -189 0 -190
0 7 58 c4 31 49 376 101 766 52 391 94 716 94 723 0 10 40 13 193 13 l192 0
170 -499z m4035 324 l0 -155 145 0 145 0 0 -155 0 -155 -145 0 -145 0 0 -255
c0 -286 5 -311 61 -341 27 -13 50 -16 124 -11 l90 5 -3 -151 c-2 -94 -8 -154
-14 -158 -20 -13 -158 -29 -243 -29 -150 0 -250 34 -317 108 -84 94 -90 124
-95 510 l-5 322 -79 0 -79 0 0 155 0 155 80 0 80 0 0 155 0 155 200 0 200 0 0
-155z m1249 -151 c227 -59 406 -238 462 -464 20 -79 17 -260 -4 -339 -30 -111
-75 -189 -157 -272 -127 -129 -279 -189 -479 -189 -203 0 -337 53 -467 184
-137 138 -190 280 -181 481 8 177 67 316 181 429 165 164 415 229 645 170z
m1396 14 c2 -2 5 -84 5 -183 l2 -178 -79 -2 c-88 -2 -132 -17 -187 -65 -84
-74 -97 -146 -96 -525 0 -148 0 -276 0 -283 0 -11 -37 -13 -190 -10 l-190 3 0
592 c0 325 -3 598 -6 607 -5 14 13 16 170 16 l176 0 0 -82 0 -81 29 40 c47 65
135 129 211 154 24 8 147 6 155 -3z m-3345 -622 c0 -333 -4 -607 -8 -610 -5
-3 -89 -6 -188 -6 l-179 -2 -3 611 -2 611 190 0 190 0 0 -604z"/>
    <path d="M4030 5568 c-19 -7 -58 -35 -86 -63 -62 -62 -88 -129 -88 -230 0
-126 48 -217 142 -273 41 -24 57 -27 132 -27 68 0 93 5 126 22 202 108 206
433 7 550 -37 21 -61 27 -122 29 -42 2 -92 -2 -111 -8z"/>
    <path d="M7188 5576 c-53 -14 -106 -51 -142 -99 -90 -118 -74 -350 31 -449 65
-61 172 -84 267 -56 60 18 128 90 156 163 31 86 26 227 -12 301 -60 116 -182
173 -300 140z"/>
  </g>
</svg>
